<svg xmlns="http://www.w3.org/2000/svg" version="1.1" xmlns:xlink="http://www.w3.org/1999/xlink" xmlns:svgjs="http://svgjs.dev/svgjs" width="1500" height="454" viewBox="0 0 1500 454"><g transform="matrix(1,0,0,1,-0.9090909090909918,0.14335938155238637)"><svg viewBox="0 0 396 120" data-background-color="#ffffff" preserveAspectRatio="xMidYMid meet" height="454" width="1500" xmlns="http://www.w3.org/2000/svg" xmlns:xlink="http://www.w3.org/1999/xlink"><g id="tight-bounds" transform="matrix(1,0,0,1,0.2400000000000091,-0.03789234754688664)"><svg viewBox="0 0 395.52 120.07578469509379" height="120.07578469509379" width="395.52"><g><svg viewBox="0 0 620.8882654698313 188.4952611353805" height="120.07578469509379" width="395.52"><g transform="matrix(1,0,0,1,225.36826546983127,55.19981933904907)"><svg viewBox="0 0 395.52 78.09562245728236" height="78.09562245728236" width="395.52"><g id="textblocktransform"><svg viewBox="0 0 395.52 78.09562245728236" height="78.09562245728236" width="395.52" id="textblock"><g><svg viewBox="0 0 395.52 78.09562245728236" height="78.09562245728236" width="395.52"><g transform="matrix(1,0,0,1,0,0)"><svg width="395.52" viewBox="3.45 -35.7 184.34 36.400000000000006" height="78.09562245728236" data-palette-color="url(#bca60030-ad80-4c3a-ba27-fc9ede4f7fb3)"></svg></g></svg></g></svg></g></svg></g><g><svg viewBox="0 0 188.4952611353805 188.4952611353805" height="188.4952611353805" width="188.4952611353805"><g><svg></svg></g><g id="icon-0"><svg viewBox="0 0 188.4952611353805 188.4952611353805" height="188.4952611353805" width="188.4952611353805"><g><path d="M0 94.248c0-52.052 42.196-94.248 94.248-94.248 52.052 0 94.248 42.196 94.247 94.248 0 52.052-42.196 94.248-94.247 94.247-52.052 0-94.248-42.196-94.248-94.247zM94.248 181.453c48.162 0 87.205-39.043 87.205-87.205 0-48.162-39.043-87.205-87.205-87.205-48.162 0-87.205 39.043-87.205 87.205 0 48.162 39.043 87.205 87.205 87.205z" data-fill-palette-color="accent" fill="#6244c5" stroke="transparent"></path></g><g transform="matrix(1,0,0,1,53.885657811288574,41.22641741089817)"><svg viewBox="0 0 80.72394551280335 106.04242631358416" height="106.04242631358416" width="80.72394551280335"><g><svg xmlns="http://www.w3.org/2000/svg" xmlns:xlink="http://www.w3.org/1999/xlink" version="1.1" x="0" y="0" viewBox="14.5 3.3 71.1 93.39999999999999" enable-background="new 0 0 100 100" xml:space="preserve" height="106.04242631358416" width="80.72394551280335" class="icon-cg-0" data-fill-palette-color="accent" id="cg-0"><path d="M52.1 84.4v8.1h12.2c1.2 0 2.1 1 2.1 2.1s-1 2.1-2.1 2.1H35.7c-1.2 0-2.1-1-2.1-2.1s1-2.1 2.1-2.1h12.2v-8.1H18.7c-2.3 0-4.2-1.9-4.2-4.2V39.9c0-2.3 1.9-4.2 4.2-4.2H33c1.2 0 2.1 1 2.1 2.1s-1 2.1-2.1 2.1H18.7l0 17.6v22.7l31.2 0c0 0 0 0 0.1 0 0 0 0 0 0.1 0l31.2 0 0-40.3-14.2 0c-1.2 0-2.1-1-2.1-2.1s1-2.1 2.1-2.1h14.3c2.3 0 4.2 1.9 4.2 4.2v40.3c0 2.3-1.9 4.2-4.2 4.2H52.1zM50.2 3.3c3.5 0.1 6.3 3 6.2 6.5-0.1 2.7-1.8 5-4.2 5.8v52.9c0 1.2-1 2.1-2.1 2.1-1.2 0-2.1-1-2.1-2.1V15.6c-0.9-0.3-1.8-0.9-2.5-1.6-1.2-1.2-1.8-2.8-1.8-4.5 0.1-3.4 2.9-6.2 6.4-6.2L50.2 3.3zM50.1 7.5L50.1 7.5c-1.2 0-2.1 0.9-2.2 2.1 0 0.6 0.2 1.1 0.6 1.5 0.4 0.4 0.9 0.6 1.5 0.7l0.1 0c1.1 0 2.1-0.9 2.1-2.1C52.1 8.5 51.2 7.6 50.1 7.5zM57.2 58.6V25.9c0-3.8 3.1-6.9 6.9-6.9h4.8c0.9-2.5 3.2-4.2 6-4.2 3.5 0 6.4 2.9 6.4 6.4s-2.9 6.4-6.4 6.4c-2.8 0-5.1-1.8-6-4.2h-4.8c-1.5 0-2.6 1.2-2.6 2.6v32.7c0 1.2-1 2.1-2.1 2.1C58.2 60.8 57.2 59.8 57.2 58.6zM72.8 21.2c0 1.2 0.9 2.1 2.1 2.1 1.2 0 2.1-0.9 2.1-2.1S76.1 19 74.9 19C73.7 19 72.8 20 72.8 21.2zM38.5 58.6V25.9c0-1.5-1.2-2.6-2.6-2.6h-4.8c-0.9 2.5-3.2 4.2-6 4.2-3.5 0-6.4-2.9-6.4-6.4s2.9-6.4 6.4-6.4c2.8 0 5.1 1.8 6 4.2h4.8c3.8 0 6.9 3.1 6.9 6.9v32.7c0 1.2-1 2.1-2.1 2.1S38.5 59.8 38.5 58.6zM27.2 21.2c0-1.2-0.9-2.1-2.1-2.1S23 20 23 21.2s0.9 2.1 2.1 2.1S27.2 22.3 27.2 21.2z" fill="#6244c5" data-fill-palette-color="accent"></path></svg></g></svg></g></svg></g></svg></g></svg></g><defs></defs><mask id="ce57738c-d0e5-487e-b9d4-20e967c470bc"><g id="SvgjsG1121"><svg viewBox="0 0 395.52 120.07578469509379" height="120.07578469509379" width="395.52"><g><svg viewBox="0 0 620.8882654698313 188.4952611353805" height="120.07578469509379" width="395.52"><g transform="matrix(1,0,0,1,225.36826546983127,55.19981933904907)"><svg viewBox="0 0 395.52 78.09562245728236" height="78.09562245728236" width="395.52"><g id="SvgjsG1120"><svg viewBox="0 0 395.52 78.09562245728236" height="78.09562245728236" width="395.52" id="SvgjsSvg1119"><g><svg viewBox="0 0 395.52 78.09562245728236" height="78.09562245728236" width="395.52"><g transform="matrix(1,0,0,1,0,0)"><svg width="395.52" viewBox="3.45 -35.7 184.34 36.400000000000006" height="78.09562245728236" data-palette-color="url(#bca60030-ad80-4c3a-ba27-fc9ede4f7fb3)"><path d="M3.45-1.1L3.45-1.1 3.75-4.1 4.05-4.1Q6-2.4 8.45-1.45 10.9-0.5 13.3-0.5L13.3-0.5Q16.7-0.5 18.8-2.38 20.9-4.25 20.9-7.4L20.9-7.4Q20.9-9.15 20.13-10.65 19.35-12.15 17.57-13.7 15.8-15.25 12.7-17.05L12.7-17.05Q10.55-18.3 8.6-19.68 6.65-21.05 5.4-22.88 4.15-24.7 4.15-27.25L4.15-27.25Q4.15-31.05 6.9-33.38 9.65-35.7 14.15-35.7L14.15-35.7Q16.15-35.7 18.45-35.27 20.75-34.85 22-34.2L22-34.2 21.75-31.4 21.45-31.4Q18.6-34.5 14.15-34.5L14.15-34.5Q10.95-34.5 9-32.88 7.05-31.25 7.05-28.5L7.05-28.5Q7.05-26.45 8.13-24.98 9.2-23.5 10.9-22.33 12.6-21.15 14.55-20.05L14.55-20.05Q16.8-18.75 18.93-17.3 21.05-15.85 22.43-13.83 23.8-11.8 23.8-8.75L23.8-8.75Q23.8-5.95 22.5-3.83 21.2-1.7 18.82-0.5 16.45 0.7 13.3 0.7L13.3 0.7Q11.3 0.7 8.6 0.2 5.9-0.3 3.45-1.1ZM37.05 0L33.65 0 33.65-35 37.05-35 37.05 0ZM76.75-16.6L67.5-16.6 67.5-17.8 80.15-17.8 80.15-4.2Q77.84-1.9 74.52-0.6 71.2 0.7 67.09 0.7L67.09 0.7Q62.9 0.7 59.34-0.68 55.8-2.05 53.15-4.53 50.5-7 49.02-10.3 47.55-13.6 47.55-17.5L47.55-17.5Q47.55-21.4 49.02-24.7 50.5-28 53.15-30.48 55.8-32.95 59.34-34.33 62.9-35.7 67.09-35.7L67.09-35.7Q68.9-35.7 71.02-35.45 73.15-35.2 75.09-34.77 77.05-34.35 78.4-33.75L78.4-33.75 78.15-30.95 77.84-30.95Q75.84-32.7 73.05-33.6 70.25-34.5 67.09-34.5L67.09-34.5Q62.4-34.5 58.84-32.38 55.3-30.25 53.32-26.43 51.34-22.6 51.34-17.5L51.34-17.5Q51.34-12.4 53.32-8.58 55.3-4.75 58.84-2.63 62.4-0.5 67.09-0.5L67.09-0.5Q70-0.5 72.47-1.3 74.95-2.1 76.75-3.6L76.75-3.6 76.75-16.6ZM90.09 0L86.44 0 99.89-35 102.99-35 116.44 0 112.79 0 106.59-16.4 95.24-16.4 90.09 0ZM100.54-32.4L100.24-32.4 95.59-17.6 106.14-17.6 100.54-32.4ZM124.54 0L124.54-35 127.94-35 127.94-1Q128.89-1 130.94-1.3L130.94-1.3 139.24-2.55 139.24 0 124.54 0ZM150.99 0L147.59 0 147.59-35 150.99-35 150.99 0ZM163.09 0L159.09 0 171.99-17.45 160.09-35 164.09-35 173.94-20.45 174.24-20.45 182.79-35 186.79-35 174.79-19.15 187.79 0 183.79 0 172.84-16.15 172.54-16.15 163.09 0Z" opacity="1" transform="matrix(1,0,0,1,0,0)" fill="white" class="wordmark-text-0" id="SvgjsPath1118"></path></svg></g></svg></g></svg></g></svg></g><g><svg viewBox="0 0 188.4952611353805 188.4952611353805" height="188.4952611353805" width="188.4952611353805"><g><svg></svg></g><g id="SvgjsG1117"><svg viewBox="0 0 188.4952611353805 188.4952611353805" height="188.4952611353805" width="188.4952611353805"><g><path d="M0 94.248c0-52.052 42.196-94.248 94.248-94.248 52.052 0 94.248 42.196 94.247 94.248 0 52.052-42.196 94.248-94.247 94.247-52.052 0-94.248-42.196-94.248-94.247zM94.248 181.453c48.162 0 87.205-39.043 87.205-87.205 0-48.162-39.043-87.205-87.205-87.205-48.162 0-87.205 39.043-87.205 87.205 0 48.162 39.043 87.205 87.205 87.205z" fill="black" stroke="transparent"></path></g><g transform="matrix(1,0,0,1,53.885657811288574,41.22641741089817)"><svg viewBox="0 0 80.72394551280335 106.04242631358416" height="106.04242631358416" width="80.72394551280335"><g><svg xmlns="http://www.w3.org/2000/svg" xmlns:xlink="http://www.w3.org/1999/xlink" version="1.1" x="0" y="0" viewBox="14.5 3.3 71.1 93.39999999999999" enable-background="new 0 0 100 100" xml:space="preserve" height="106.04242631358416" width="80.72394551280335" class="icon-cg-0" data-fill-palette-color="accent" id="SvgjsSvg1116"><path d="M52.1 84.4v8.1h12.2c1.2 0 2.1 1 2.1 2.1s-1 2.1-2.1 2.1H35.7c-1.2 0-2.1-1-2.1-2.1s1-2.1 2.1-2.1h12.2v-8.1H18.7c-2.3 0-4.2-1.9-4.2-4.2V39.9c0-2.3 1.9-4.2 4.2-4.2H33c1.2 0 2.1 1 2.1 2.1s-1 2.1-2.1 2.1H18.7l0 17.6v22.7l31.2 0c0 0 0 0 0.1 0 0 0 0 0 0.1 0l31.2 0 0-40.3-14.2 0c-1.2 0-2.1-1-2.1-2.1s1-2.1 2.1-2.1h14.3c2.3 0 4.2 1.9 4.2 4.2v40.3c0 2.3-1.9 4.2-4.2 4.2H52.1zM50.2 3.3c3.5 0.1 6.3 3 6.2 6.5-0.1 2.7-1.8 5-4.2 5.8v52.9c0 1.2-1 2.1-2.1 2.1-1.2 0-2.1-1-2.1-2.1V15.6c-0.9-0.3-1.8-0.9-2.5-1.6-1.2-1.2-1.8-2.8-1.8-4.5 0.1-3.4 2.9-6.2 6.4-6.2L50.2 3.3zM50.1 7.5L50.1 7.5c-1.2 0-2.1 0.9-2.2 2.1 0 0.6 0.2 1.1 0.6 1.5 0.4 0.4 0.9 0.6 1.5 0.7l0.1 0c1.1 0 2.1-0.9 2.1-2.1C52.1 8.5 51.2 7.6 50.1 7.5zM57.2 58.6V25.9c0-3.8 3.1-6.9 6.9-6.9h4.8c0.9-2.5 3.2-4.2 6-4.2 3.5 0 6.4 2.9 6.4 6.4s-2.9 6.4-6.4 6.4c-2.8 0-5.1-1.8-6-4.2h-4.8c-1.5 0-2.6 1.2-2.6 2.6v32.7c0 1.2-1 2.1-2.1 2.1C58.2 60.8 57.2 59.8 57.2 58.6zM72.8 21.2c0 1.2 0.9 2.1 2.1 2.1 1.2 0 2.1-0.9 2.1-2.1S76.1 19 74.9 19C73.7 19 72.8 20 72.8 21.2zM38.5 58.6V25.9c0-1.5-1.2-2.6-2.6-2.6h-4.8c-0.9 2.5-3.2 4.2-6 4.2-3.5 0-6.4-2.9-6.4-6.4s2.9-6.4 6.4-6.4c2.8 0 5.1 1.8 6 4.2h4.8c3.8 0 6.9 3.1 6.9 6.9v32.7c0 1.2-1 2.1-2.1 2.1S38.5 59.8 38.5 58.6zM27.2 21.2c0-1.2-0.9-2.1-2.1-2.1S23 20 23 21.2s0.9 2.1 2.1 2.1S27.2 22.3 27.2 21.2z" fill="black"></path></svg></g></svg></g></svg></g></svg></g></svg></g><defs><mask></mask></defs></svg><rect width="395.52" height="120.07578469509379" fill="black" stroke="none" visibility="hidden"></rect></g></mask><linearGradient x1="0" x2="1" y1="0.578" y2="0.595" id="bca60030-ad80-4c3a-ba27-fc9ede4f7fb3"><stop stop-color="#6ee2f5" offset="0"></stop><stop stop-color="#6454f0" offset="1"></stop></linearGradient><rect width="395.52" height="120.07578469509379" fill="url(#bca60030-ad80-4c3a-ba27-fc9ede4f7fb3)" mask="url(#ce57738c-d0e5-487e-b9d4-20e967c470bc)" data-fill-palette-color="primary"></rect></svg><rect width="395.52" height="120.07578469509379" fill="none" stroke="none" visibility="hidden"></rect></g></svg></g></svg>